{
  "accessors": [
    {
      "bufferView": 2,
      "componentType": 5126,
      "count": 38436,
      "max": [
        1.349013090133667,
        1.349013090133667,
        5.183288097381592
      ],
      "min": [
        -1.349013090133667,
        -4.178045749664307,
        -0.25381505489349365
      ],
      "type": "VEC3"
    },
    {
      "bufferView": 2,
      "byteOffset": 461232,
      "componentType": 5126,
      "count": 38436,
      "max": [
        1.0,
        1.0,
        1.0
      ],
      "min": [
        -1.0,
        -1.0,
        -1.0
      ],
      "type": "VEC3"
    },
    {
      "bufferView": 3,
      "componentType": 5126,
      "count": 38436,
      "max": [
        1.0,
        1.0,
        1.0,
        1.0
      ],
      "min": [
        -1.0,
        -1.0,
        -1.0,
        1.0
      ],
      "type": "VEC4"
    },
    {
      "bufferView": 1,
      "componentType": 5126,
      "count": 38436,
      "max": [
        1.0,
        0.9999825358390808
      ],
      "min": [
        0.0,
        0.0
      ],
      "type": "VEC2"
    },
    {
      "bufferView": 1,
      "byteOffset": 307488,
      "componentType": 5126,
      "count": 38436,
      "max": [
        1.0,
        0.9999825358390808
      ],
      "min": [
        0.0,
        0.0
      ],
      "type": "VEC2"
    },
    {
      "bufferView": 1,
      "byteOffset": 614976,
      "componentType": 5126,
      "count": 38436,
      "max": [
        1.0,
        0.9999825358390808
      ],
      "min": [
        0.0,
        0.0
      ],
      "type": "VEC2"
    },
    {
      "bufferView": 0,
      "componentType": 5125,
      "count": 121674,
      "type": "SCALAR"
    }
  ],
  "asset": {
    "extras": {
      "author": "Mark A93 (https://sketchfab.com/marka93)",
      "license": "CC-BY-4.0 (http://creativecommons.org/licenses/by/4.0/)",
      "source": "https://sketchfab.com/3d-models/temple-d45c2fea09ec47c0938d81ae477c3f7f",
      "title": "Temple"
    },
    "generator": "Sketchfab-15.18.0",
    "version": "2.0"
  },
  "bufferViews": [
    {
      "buffer": 0,
      "byteLength": 486696,
      "name": "floatBufferViews",
      "target": 34963
    },
    {
      "buffer": 0,
      "byteLength": 922464,
      "byteOffset": 486696,
      "byteStride": 8,
      "name": "floatBufferViews",
      "target": 34962
    },
    {
      "buffer": 0,
      "byteLength": 922464,
      "byteOffset": 1409160,
      "byteStride": 12,
      "name": "floatBufferViews",
      "target": 34962
    },
    {
      "buffer": 0,
      "byteLength": 614976,
      "byteOffset": 2331624,
      "byteStride": 16,
      "name": "floatBufferViews",
      "target": 34962
    }
  ],
  "buffers": [
    {
      "byteLength": 2946600,
      "uri": "scene.bin"
    }
  ],
  "images": [
    {
      "uri": "textures/Temple_baseColor.png"
    },
    {
      "uri": "textures/Temple_metallicRoughness.png"
    },
    {
      "uri": "textures/Temple_normal.png"
    }
  ],
  "materials": [
    {
      "doubleSided": true,
      "name": "Temple",
      "normalTexture": {
        "index": 2,
        "texCoord": 1
      },
      "occlusionTexture": {
        "index": 1
      },
      "pbrMetallicRoughness": {
        "baseColorTexture": {
          "index": 0
        },
        "metallicFactor": 0.0,
        "metallicRoughnessTexture": {
          "index": 1
        }
      }
    }
  ],
  "meshes": [
    {
      "name": "Temple.001_Temple_0",
      "primitives": [
        {
          "attributes": {
            "NORMAL": 1,
            "POSITION": 0,
            "TANGENT": 2,
            "TEXCOORD_0": 3,
            "TEXCOORD_1": 4,
            "TEXCOORD_2": 5
          },
          "indices": 6,
          "material": 0,
          "mode": 4
        }
      ]
    }
  ],
  "nodes": [
    {
      "children": [
        1
      ],
      "matrix": [
        2.6679694652557373,
        0.0,
        0.0,
        0.0,
        0.0,
        5.924082258647572e-16,
        -2.6679694652557373,
        0.0,
        0.0,
        2.6679694652557373,
        5.924082258647572e-16,
        0.0,
        0.0,
        0.0,
        0.0,
        1.0
      ],
      "name": "Sketchfab_model"
    },
    {
      "children": [
        2
      ],
      "matrix": [
        0.009999999776482582,
        0.0,
        0.0,
        0.0,
        0.0,
        0.0,
        0.009999999776482582,
        0.0,
        0.0,
        -0.009999999776482582,
        0.0,
        0.0,
        0.0,
        0.0,
        0.0,
        1.0
      ],
      "name": "Water_temple.fbx"
    },
    {
      "children": [
        3
      ],
      "name": "RootNode"
    },
    {
      "children": [
        4
      ],
      "matrix": [
        100.0,
        0.0,
        0.0,
        0.0,
        -0.0,
        -1.629206793918314e-05,
        -99.99999999999868,
        0.0,
        0.0,
        99.99999999999868,
        -1.629206793918314e-05,
        0.0,
        -585.126220703125,
        0.0,
        0.0,
        1.0
      ],
      "name": "Temple.001"
    },
    {
      "mesh": 0,
      "name": "Temple.001_Temple_0"
    }
  ],
  "samplers": [
    {
      "magFilter": 9729,
      "minFilter": 9987,
      "wrapS": 10497,
      "wrapT": 10497
    }
  ],
  "scene": 0,
  "scenes": [
    {
      "name": "Sketchfab_Scene",
      "nodes": [
        0
      ]
    }
  ],
  "textures": [
    {
      "sampler": 0,
      "source": 0
    },
    {
      "sampler": 0,
      "source": 1
    },
    {
      "sampler": 0,
      "source": 2
    }
  ]
}
